# Blender v3.3.0 OBJ File: ''
# www.blender.org
mtllib crosshair.mtl
o first_Cube
v 1.000000 0.162373 -0.210000
v 1.000000 -0.160000 -0.210000
v 1.000000 0.162373 0.210000
v 1.000000 -0.160000 0.210000
v -1.000000 0.162373 -0.210000
v -1.000000 -0.160000 -0.210000
v -1.000000 0.162373 0.210000
v -1.000000 -0.160000 0.210000
vt 0.500000 0.500000
vt 1.000000 0.500000
vt 1.000000 1.000000
vt 0.500000 1.000000
vt 0.500000 0.500000
vt 0.500000 0.500000
vt 0.000000 0.500000
vt 0.000000 0.500000
vt 0.000000 0.000000
vt 0.000000 0.000000
vt 0.500000 0.000000
vt 0.500000 0.000000
vn 0.0000 1.0000 0.0000
vn 0.0000 0.0000 1.0000
vn -1.0000 0.0000 0.0000
vn 0.0000 -1.0000 0.0000
vn 1.0000 0.0000 0.0000
vn 0.0000 0.0000 -1.0000
usemtl Material
s off
f 1/1/1 5/2/1 7/3/1 3/4/1
f 4/5/2 3/6/2 7/7/2 8/8/2
f 8/8/3 7/7/3 5/9/3 6/10/3
f 6/10/4 2/11/4 4/5/4 8/8/4
f 2/11/5 1/12/5 3/6/5 4/5/5
f 6/10/6 5/9/6 1/12/6 2/11/6
o second_Cube.002
v -0.162373 1.000000 -0.200000
v 0.160000 1.000000 -0.200000
v -0.162373 1.000000 0.200000
v 0.160000 1.000000 0.200000
v -0.162373 -1.000000 -0.200000
v 0.160000 -1.000000 -0.200000
v -0.162373 -1.000000 0.200000
v 0.160000 -1.000000 0.200000
vt 0.000000 0.500000
vt 0.500000 0.500000
vt 0.500000 1.000000
vt 0.000000 1.000000
vt 1.000000 0.500000
vt 1.000000 0.500000
vt 0.500000 0.500000
vt 0.500000 0.500000
vt 0.500000 0.000000
vt 0.500000 0.000000
vt 1.000000 0.000000
vt 1.000000 0.000000
vn -1.0000 0.0000 0.0000
vn 0.0000 0.0000 1.0000
vn -0.0000 -1.0000 0.0000
vn 1.0000 -0.0000 0.0000
vn 0.0000 1.0000 0.0000
vn 0.0000 0.0000 -1.0000
usemtl Material
s off
f 9/13/7 13/14/7 15/15/7 11/16/7
f 12/17/8 11/18/8 15/19/8 16/20/8
f 16/20/9 15/19/9 13/21/9 14/22/9
f 14/22/10 10/23/10 12/17/10 16/20/10
f 10/23/11 9/24/11 11/18/11 12/17/11
f 14/22/12 13/21/12 9/24/12 10/23/12
